<?xml version="1.0" encoding="UTF-8" standalone="no"?>
<!-- Created with Inkscape (http://www.inkscape.org/) -->

<svg
   version="1.1"
   id="svg1"
   width="880"
   height="880"
   viewBox="0 0 880 880"
   sodipodi:docname="cleaning-teeth.svg"
   inkscape:version="1.3.2 (091e20e, 2023-11-25, custom)"
   xmlns:inkscape="http://www.inkscape.org/namespaces/inkscape"
   xmlns:sodipodi="http://sodipodi.sourceforge.net/DTD/sodipodi-0.dtd"
   xmlns="http://www.w3.org/2000/svg"
   xmlns:svg="http://www.w3.org/2000/svg">
  <defs
     id="defs1">
    <clipPath
       clipPathUnits="userSpaceOnUse"
       id="clipPath3">
      <path
         d="M 0,660 H 660 V 0 H 0 Z"
         transform="translate(-447.95021,-273.916)"
         id="path3" />
    </clipPath>
    <clipPath
       clipPathUnits="userSpaceOnUse"
       id="clipPath5">
      <path
         d="M 0,660 H 660 V 0 H 0 Z"
         transform="translate(-435.44631,-348.94341)"
         id="path5" />
    </clipPath>
    <clipPath
       clipPathUnits="userSpaceOnUse"
       id="clipPath7">
      <path
         d="M 0,660 H 660 V 0 H 0 Z"
         transform="translate(-343.49411,-332.63431)"
         id="path7" />
    </clipPath>
    <clipPath
       clipPathUnits="userSpaceOnUse"
       id="clipPath9">
      <path
         d="M 0,660 H 660 V 0 H 0 Z"
         transform="translate(-222.7969,-476.91261)"
         id="path9" />
    </clipPath>
    <clipPath
       clipPathUnits="userSpaceOnUse"
       id="clipPath11">
      <path
         d="M 0,660 H 660 V 0 H 0 Z"
         transform="translate(-343.49411,-215.76861)"
         id="path11" />
    </clipPath>
    <clipPath
       clipPathUnits="userSpaceOnUse"
       id="clipPath13">
      <path
         d="M 0,660 H 660 V 0 H 0 Z"
         transform="translate(-291.709,-297.70701)"
         id="path13" />
    </clipPath>
    <clipPath
       clipPathUnits="userSpaceOnUse"
       id="clipPath15">
      <path
         d="M 0,660 H 660 V 0 H 0 Z"
         transform="translate(-295.64941,-296.72461)"
         id="path15" />
    </clipPath>
    <clipPath
       clipPathUnits="userSpaceOnUse"
       id="clipPath17">
      <path
         d="M 0,660 H 660 V 0 H 0 Z"
         transform="translate(-284.0308,-413.01421)"
         id="path17" />
    </clipPath>
    <clipPath
       clipPathUnits="userSpaceOnUse"
       id="clipPath19">
      <path
         d="M 0,660 H 660 V 0 H 0 Z"
         transform="translate(-282.94381,-386.73051)"
         id="path19" />
    </clipPath>
    <clipPath
       clipPathUnits="userSpaceOnUse"
       id="clipPath21">
      <path
         d="M 0,660 H 660 V 0 H 0 Z"
         transform="translate(-278.5942,-419.09421)"
         id="path21" />
    </clipPath>
    <clipPath
       clipPathUnits="userSpaceOnUse"
       id="clipPath23">
      <path
         d="M 0,660 H 660 V 0 H 0 Z"
         transform="translate(-282.94381,-395.02051)"
         id="path23" />
    </clipPath>
    <clipPath
       clipPathUnits="userSpaceOnUse"
       id="clipPath25">
      <path
         d="M 0,660 H 660 V 0 H 0 Z"
         transform="translate(-287.9731,-401.13821)"
         id="path25" />
    </clipPath>
    <clipPath
       clipPathUnits="userSpaceOnUse"
       id="clipPath27">
      <path
         d="M 0,660 H 660 V 0 H 0 Z"
         transform="translate(-309.32081,-435.32761)"
         id="path27" />
    </clipPath>
    <clipPath
       clipPathUnits="userSpaceOnUse"
       id="clipPath29">
      <path
         d="M 0,660 H 660 V 0 H 0 Z"
         transform="translate(-396.97951,-413.01421)"
         id="path29" />
    </clipPath>
    <clipPath
       clipPathUnits="userSpaceOnUse"
       id="clipPath31">
      <path
         d="M 0,660 H 660 V 0 H 0 Z"
         transform="translate(-398.06641,-386.73051)"
         id="path31" />
    </clipPath>
    <clipPath
       clipPathUnits="userSpaceOnUse"
       id="clipPath33">
      <path
         d="M 0,660 H 660 V 0 H 0 Z"
         transform="translate(-402.41701,-419.09421)"
         id="path33" />
    </clipPath>
    <clipPath
       clipPathUnits="userSpaceOnUse"
       id="clipPath35">
      <path
         d="M 0,660 H 660 V 0 H 0 Z"
         transform="translate(-398.06641,-395.02051)"
         id="path35" />
    </clipPath>
    <clipPath
       clipPathUnits="userSpaceOnUse"
       id="clipPath37">
      <path
         d="M 0,660 H 660 V 0 H 0 Z"
         transform="translate(-403.09571,-401.13821)"
         id="path37" />
    </clipPath>
    <clipPath
       clipPathUnits="userSpaceOnUse"
       id="clipPath39">
      <path
         d="M 0,660 H 660 V 0 H 0 Z"
         transform="translate(-371.68851,-435.32761)"
         id="path39" />
    </clipPath>
    <clipPath
       clipPathUnits="userSpaceOnUse"
       id="clipPath41">
      <path
         d="M 0,660 H 660 V 0 H 0 Z"
         transform="translate(-343.90331,-321.87501)"
         id="path41" />
    </clipPath>
    <clipPath
       clipPathUnits="userSpaceOnUse"
       id="clipPath43">
      <path
         d="M 0,660 H 660 V 0 H 0 Z"
         transform="translate(-328.48931,-329.75591)"
         id="path43" />
    </clipPath>
    <clipPath
       clipPathUnits="userSpaceOnUse"
       id="clipPath45">
      <path
         d="M 0,660 H 660 V 0 H 0 Z"
         transform="translate(-288.68161,-476.02201)"
         id="path45" />
    </clipPath>
    <clipPath
       clipPathUnits="userSpaceOnUse"
       id="clipPath47">
      <path
         d="M 0,660 H 660 V 0 H 0 Z"
         transform="translate(-407.14751,-475.92531)"
         id="path47" />
    </clipPath>
    <clipPath
       clipPathUnits="userSpaceOnUse"
       id="clipPath49">
      <path
         d="M 0,660 H 660 V 0 H 0 Z"
         transform="translate(-434.63091,-475.82911)"
         id="path49" />
    </clipPath>
    <clipPath
       clipPathUnits="userSpaceOnUse"
       id="clipPath51">
      <path
         d="M 0,660 H 660 V 0 H 0 Z"
         transform="translate(-228.84721,-189.10251)"
         id="path51" />
    </clipPath>
    <clipPath
       clipPathUnits="userSpaceOnUse"
       id="clipPath53">
      <path
         d="M 0,660 H 660 V 0 H 0 Z"
         transform="translate(-246.8281,-475.82911)"
         id="path53" />
    </clipPath>
    <clipPath
       clipPathUnits="userSpaceOnUse"
       id="clipPath55">
      <path
         d="M 0,660 H 660 V 0 H 0 Z"
         transform="translate(-269.63961,-213.42091)"
         id="path55" />
    </clipPath>
    <clipPath
       clipPathUnits="userSpaceOnUse"
       id="clipPath57">
      <path
         d="M 0,660 H 660 V 0 H 0 Z"
         transform="translate(-242.27101,-126.80271)"
         id="path57" />
    </clipPath>
    <clipPath
       clipPathUnits="userSpaceOnUse"
       id="clipPath59">
      <path
         d="M 0,660 H 660 V 0 H 0 Z"
         transform="translate(-428.00101,-249.1396)"
         id="path59" />
    </clipPath>
    <clipPath
       clipPathUnits="userSpaceOnUse"
       id="clipPath61">
      <path
         d="M 0,660 H 660 V 0 H 0 Z"
         transform="translate(-418.68461,-266.26071)"
         id="path61" />
    </clipPath>
  </defs>
  <sodipodi:namedview
     id="namedview1"
     pagecolor="#ffffff"
     bordercolor="#000000"
     borderopacity="0.25"
     inkscape:showpageshadow="2"
     inkscape:pageopacity="0.0"
     inkscape:pagecheckerboard="0"
     inkscape:deskcolor="#d1d1d1"
     inkscape:zoom="0.67272727"
     inkscape:cx="439.25676"
     inkscape:cy="440"
     inkscape:window-width="1440"
     inkscape:window-height="830"
     inkscape:window-x="-6"
     inkscape:window-y="-6"
     inkscape:window-maximized="1"
     inkscape:current-layer="g1">
    <inkscape:page
       x="0"
       y="0"
       inkscape:label="1"
       id="page1"
       width="880"
       height="880"
       margin="94.65107 149.34933 20.392 151.144"
       bleed="0" />
  </sodipodi:namedview>
  <g
     id="g1"
     inkscape:groupmode="layer"
     inkscape:label="1">
    <g
       id="group-MC0">
      <path
         id="path2"
         d="M 0,0 C 55.1,0 100.038,44.938 100.038,100.036 100.038,155.135 55.1,200.074 0,200.074 c -55.098,0 -100.036,-44.939 -100.036,-100.038 C -100.036,44.938 -55.098,0 0,0"
         style="fill:#2f2825;fill-opacity:1;fill-rule:evenodd;stroke:none"
         transform="matrix(1.3333333,0,0,-1.3333333,597.26693,514.77867)"
         clip-path="url(#clipPath3)" />
      <path
         id="path4"
         d="M 0,0 C 26.351,0 47.844,21.493 47.844,47.844 47.844,74.195 26.351,95.688 0,95.688 -26.352,95.688 -47.845,74.195 -47.845,47.844 -47.845,21.493 -26.352,0 0,0"
         style="fill:#ed0e66;fill-opacity:1;fill-rule:evenodd;stroke:none"
         transform="matrix(1.3333333,0,0,-1.3333333,580.59507,414.74213)"
         clip-path="url(#clipPath5)" />
      <path
         id="path6"
         d="m 0,0 c 85.941,0 156.035,70.093 156.035,156.035 0,85.941 -70.094,156.036 -156.035,156.036 -85.941,0 -156.036,-70.095 -156.036,-156.036 C -156.036,70.093 -85.941,0 0,0"
         style="fill:#2f2825;fill-opacity:1;fill-rule:evenodd;stroke:none"
         transform="matrix(1.3333333,0,0,-1.3333333,457.99213,436.4876)"
         clip-path="url(#clipPath7)" />
      <path
         id="path8"
         d="m 0,0 v -76.581 c 0,-18.911 2.945,-35.076 9.609,-52.773 l 12.45,-33.065 c 4.675,-12.414 10.438,-22.357 18.886,-32.585 l 41.458,-50.189 c 8.637,-10.453 20.306,-15.951 33.866,-15.951 h 8.857 c 13.558,0 25.229,5.498 33.865,15.951 l 41.458,50.189 c 8.45,10.228 14.212,20.171 18.887,32.585 l 12.451,33.065 c 6.665,17.697 9.608,33.862 9.608,52.773 l 0,76.581 -120.698,-1.631 z"
         style="fill:#f5a683;fill-opacity:1;fill-rule:evenodd;stroke:none"
         transform="matrix(1.3333333,0,0,-1.3333333,297.06253,244.11653)"
         clip-path="url(#clipPath9)" />
      <path
         id="path10"
         d="M 0,0 H 4.429 C 17.987,0 29.658,5.498 38.294,15.951 L 79.752,66.14 c 8.45,10.228 14.212,20.171 18.887,32.585 l 12.451,33.065 c 6.665,17.697 9.608,33.862 9.608,52.773 v 76.581 L 0,259.513 Z"
         style="fill:#f28f62;fill-opacity:1;fill-rule:evenodd;stroke:none"
         transform="matrix(1.3333333,0,0,-1.3333333,457.99213,592.30853)"
         clip-path="url(#clipPath11)" />
      <path
         id="path12"
         d="M 0,0 C 15.154,-57.181 88.106,-56.948 103.57,0 69.047,16.937 34.523,17.157 0,0"
         style="fill:#cc2d23;fill-opacity:1;fill-rule:evenodd;stroke:none"
         transform="matrix(1.3333333,0,0,-1.3333333,388.94533,483.05733)"
         clip-path="url(#clipPath13)" />
      <path
         id="path14"
         d="M 0,0 C 6.839,-19.204 26.435,-28.958 46.354,-29.356 67.19,-29.773 88.379,-19.951 95.69,0 63.793,7.255 31.897,7.504 0,0"
         style="fill:#ffffff;fill-opacity:1;fill-rule:evenodd;stroke:none"
         transform="matrix(1.3333333,0,0,-1.3333333,394.1992,484.3672)"
         clip-path="url(#clipPath15)" />
      <path
         id="path16"
         d="m 0,0 c 15.239,-2.13 27.591,-11.221 27.591,-20.304 0,-9.082 -12.352,-14.718 -27.591,-12.589 -15.239,2.131 -27.591,11.222 -27.591,20.305 C -27.591,-3.505 -15.239,2.131 0,0"
         style="fill:#ffffff;fill-opacity:1;fill-rule:evenodd;stroke:none"
         transform="matrix(1.3333333,0,0,-1.3333333,378.70773,329.3144)"
         clip-path="url(#clipPath17)" />
      <path
         id="path18"
         d="m 0,0 c 8.235,0 14.951,6.716 14.951,14.951 0,8.234 -6.716,14.951 -14.951,14.951 -8.234,0 -14.951,-6.717 -14.951,-14.951 C -14.951,6.716 -8.234,0 0,0"
         style="fill:#758ed0;fill-opacity:1;fill-rule:evenodd;stroke:none"
         transform="matrix(1.3333333,0,0,-1.3333333,377.2584,364.35933)"
         clip-path="url(#clipPath19)" />
      <path
         id="path20"
         d="m 0,0 c 13.852,-1.937 25.509,-9.156 28.983,-17.242 -4.848,5.399 -13.582,9.769 -23.546,11.162 -15.239,2.131 -27.591,-3.505 -27.591,-12.588 0,-4.915 3.616,-9.831 9.349,-13.646 -10.185,4.289 -17.233,11.451 -17.233,18.609 C -30.038,-3.817 -16.589,2.319 0,0"
         style="fill:#2f2825;fill-opacity:1;fill-rule:evenodd;stroke:none"
         transform="matrix(1.3333333,0,0,-1.3333333,371.45893,321.20773)"
         clip-path="url(#clipPath21)" />
      <path
         id="path22"
         d="m 0,0 c 3.669,0 6.66,2.993 6.66,6.661 0,3.669 -2.991,6.66 -6.66,6.66 -3.669,0 -6.66,-2.991 -6.66,-6.66 C -6.66,2.993 -3.669,0 0,0"
         style="fill:#2f2825;fill-opacity:1;fill-rule:evenodd;stroke:none"
         transform="matrix(1.3333333,0,0,-1.3333333,377.2584,353.306)"
         clip-path="url(#clipPath23)" />
      <path
         id="path24"
         d="M 0,0 C 1.722,0 3.125,1.404 3.125,3.126 3.125,4.848 1.722,6.252 0,6.252 -1.722,6.252 -3.126,4.848 -3.126,3.126 -3.126,1.404 -1.722,0 0,0"
         style="fill:#ffffff;fill-opacity:1;fill-rule:evenodd;stroke:none"
         transform="matrix(1.3333333,0,0,-1.3333333,383.96413,345.14907)"
         clip-path="url(#clipPath25)" />
      <path
         id="path26"
         d="m 0,0 c -3.563,-3.825 -8.847,-5.809 -14.361,-5.012 l -25.896,3.739 c -7.307,1.055 -13.931,-0.232 -20.255,-3.939 -3.714,-2.176 -8.247,-1.65 -11.363,1.318 l -0.444,0.422 10.242,7.873 c 6.509,5.003 13.794,7.113 21.97,6.36 L -2.794,7.33 C -1.096,7.172 0.277,6.131 0.887,4.536 1.495,2.941 1.165,1.25 0,0"
         style="fill:#2f2825;fill-opacity:1;fill-rule:evenodd;stroke:none"
         transform="matrix(1.3333333,0,0,-1.3333333,412.42773,299.5632)"
         clip-path="url(#clipPath27)" />
      <path
         id="path28"
         d="m 0,0 c -15.237,-2.13 -27.592,-11.221 -27.592,-20.304 0,-9.082 12.355,-14.718 27.592,-12.589 15.237,2.131 27.592,11.222 27.592,20.305 C 27.592,-3.505 15.237,2.131 0,0"
         style="fill:#ffffff;fill-opacity:1;fill-rule:evenodd;stroke:none"
         transform="matrix(1.3333333,0,0,-1.3333333,529.306,329.3144)"
         clip-path="url(#clipPath29)" />
      <path
         id="path30"
         d="m 0,0 c 8.235,0 14.952,6.716 14.952,14.951 0,8.234 -6.717,14.951 -14.952,14.951 -8.234,0 -14.951,-6.717 -14.951,-14.951 C -14.951,6.716 -8.234,0 0,0"
         style="fill:#758ed0;fill-opacity:1;fill-rule:evenodd;stroke:none"
         transform="matrix(1.3333333,0,0,-1.3333333,530.7552,364.35933)"
         clip-path="url(#clipPath31)" />
      <path
         id="path32"
         d="m 0,0 c -13.853,-1.937 -25.512,-9.156 -28.982,-17.242 4.847,5.399 13.579,9.769 23.545,11.162 15.237,2.131 27.591,-3.505 27.591,-12.588 0,-4.915 -3.618,-9.831 -9.35,-13.646 10.184,4.289 17.232,11.451 17.232,18.609 C 30.036,-3.817 16.589,2.319 0,0"
         style="fill:#2f2825;fill-opacity:1;fill-rule:evenodd;stroke:none"
         transform="matrix(1.3333333,0,0,-1.3333333,536.556,321.20773)"
         clip-path="url(#clipPath33)" />
      <path
         id="path34"
         d="m 0,0 c 3.67,0 6.662,2.993 6.662,6.661 0,3.669 -2.992,6.66 -6.662,6.66 -3.669,0 -6.66,-2.991 -6.66,-6.66 C -6.66,2.993 -3.669,0 0,0"
         style="fill:#2f2825;fill-opacity:1;fill-rule:evenodd;stroke:none"
         transform="matrix(1.3333333,0,0,-1.3333333,530.7552,353.306)"
         clip-path="url(#clipPath35)" />
      <path
         id="path36"
         d="M 0,0 C 1.723,0 3.127,1.404 3.127,3.126 3.127,4.848 1.723,6.252 0,6.252 -1.721,6.252 -3.126,4.848 -3.126,3.126 -3.126,1.404 -1.721,0 0,0"
         style="fill:#ffffff;fill-opacity:1;fill-rule:evenodd;stroke:none"
         transform="matrix(1.3333333,0,0,-1.3333333,537.46093,345.14907)"
         clip-path="url(#clipPath37)" />
      <path
         id="path38"
         d="m 0,0 c 3.564,-3.825 8.849,-5.809 14.363,-5.012 l 25.896,3.739 c 7.305,1.055 13.93,-0.232 20.255,-3.939 3.714,-2.176 8.247,-1.65 11.362,1.318 l 0.443,0.422 -10.241,7.873 c -6.51,5.003 -13.796,7.113 -21.971,6.36 L 2.797,7.33 C 1.096,7.172 -0.276,6.131 -0.885,4.536 -1.495,2.941 -1.164,1.25 0,0"
         style="fill:#2f2825;fill-opacity:1;fill-rule:evenodd;stroke:none"
         transform="matrix(1.3333333,0,0,-1.3333333,495.58467,299.5632)"
         clip-path="url(#clipPath39)" />
      <path
         id="path40"
         d="m 0,0 c 9.133,0 16.581,7.451 16.581,16.582 0,9.134 -7.448,16.583 -16.581,16.583 -9.135,0 -16.583,-7.449 -16.583,-16.583 C -16.583,7.451 -9.135,0 0,0"
         style="fill:#f28f62;fill-opacity:1;fill-rule:evenodd;stroke:none"
         transform="matrix(1.3333333,0,0,-1.3333333,458.53773,450.83333)"
         clip-path="url(#clipPath41)" />
      <path
         id="path42"
         d="m 0,0 c 5.47,0 9.933,4.463 9.933,9.935 0,5.471 -4.463,9.933 -9.933,9.933 -5.472,0 -9.935,-4.462 -9.935,-9.933 C -9.935,4.463 -5.472,0 0,0"
         style="fill:#f28f62;fill-opacity:1;fill-rule:evenodd;stroke:none"
         transform="matrix(1.3333333,0,0,-1.3333333,437.98573,440.32547)"
         clip-path="url(#clipPath43)" />
      <path
         id="path44"
         d="M 0,0 C 3.29,44.134 11.905,86.492 28.243,126.276 22.658,83.73 21.244,41.462 26.532,-0.358 18.944,-0.256 11.355,-0.153 3.768,-0.051 2.511,-0.033 1.255,-0.016 0,0"
         style="fill:#b2a29e;fill-opacity:1;fill-rule:evenodd;stroke:none"
         transform="matrix(1.3333333,0,0,-1.3333333,384.9088,245.304)"
         clip-path="url(#clipPath45)" />
      <path
         id="path46"
         d="m 0,0 c -2.4,32.196 -8.686,63.098 -20.604,92.121 4.075,-31.038 5.106,-61.873 1.249,-92.383 5.535,0.075 11.071,0.151 16.606,0.225 C -1.832,-0.025 -0.916,-0.012 0,0"
         style="fill:#948681;fill-opacity:1;fill-rule:evenodd;stroke:none"
         transform="matrix(1.3333333,0,0,-1.3333333,542.86333,245.43293)"
         clip-path="url(#clipPath47)" />
      <path
         id="path48"
         d="m 0,0 c -1.516,20.345 -5.489,39.873 -13.021,58.212 2.576,-19.613 3.228,-39.098 0.788,-58.378 3.5,0.048 6.999,0.096 10.497,0.143 C -1.158,-0.015 -0.579,-0.008 0,0"
         style="fill:#766864;fill-opacity:1;fill-rule:evenodd;stroke:none"
         transform="matrix(1.3333333,0,0,-1.3333333,579.50787,245.5612)"
         clip-path="url(#clipPath49)" />
      <path
         id="path50"
         d="m 0,0 81.896,33.967 c 9.557,3.964 18.378,5.786 28.723,5.932 l 12.613,0.177 c 7.703,0.109 14.266,1.135 21.634,3.385 l 60.644,18.519 2.625,-4.498 c 1.275,-2.187 1.491,-4.582 0.622,-6.959 -0.867,-2.377 -2.572,-4.074 -4.956,-4.926 L 150.803,26.641 c -8.454,-3.024 -16.105,-4.408 -25.083,-4.537 l -3.788,-0.056 C 107.674,21.843 95.497,18.396 83.244,11.1 L 29.903,-20.66 Z"
         style="fill:#4ba5ce;fill-opacity:1;fill-rule:evenodd;stroke:none"
         transform="matrix(1.3333333,0,0,-1.3333333,305.1296,627.86333)"
         clip-path="url(#clipPath51)" />
      <path
         id="path52"
         d="M 0,0 C 1.516,20.345 5.488,39.873 13.02,58.212 10.446,38.599 9.793,19.114 12.233,-0.166 8.733,-0.118 5.235,-0.07 1.737,-0.023 1.157,-0.015 0.579,-0.008 0,0"
         style="fill:#766864;fill-opacity:1;fill-rule:evenodd;stroke:none"
         transform="matrix(1.3333333,0,0,-1.3333333,329.10413,245.5612)"
         clip-path="url(#clipPath53)" />
      <path
         id="path54"
         d="m 0,0 46.729,-7.846 c 7.329,-1.231 12.366,-8.048 11.392,-15.412 L 55.477,-43.269 C 54.378,-51.581 49.58,-58.218 42.034,-61.87 l -46.588,-22.543 -22.815,-2.205 -16.874,-10.854 c -10.183,-6.546 -21.695,-8.619 -32.661,-3.496 l -0.803,0.376 -51.055,-41.841 -27.519,49.521 131.086,87.511 C -17.5,-0.263 -9.126,1.532 0,0"
         style="fill:#f5a683;fill-opacity:1;fill-rule:evenodd;stroke:none"
         transform="matrix(1.3333333,0,0,-1.3333333,359.51947,595.4388)"
         clip-path="url(#clipPath55)" />
      <path
         id="path56"
         d="M 0,0 43.679,21.969 63.332,21.811 22.815,2.205 Z"
         style="fill:#f28f62;fill-opacity:1;fill-rule:evenodd;stroke:none"
         transform="matrix(1.3333333,0,0,-1.3333333,323.028,710.92973)"
         clip-path="url(#clipPath57)" />
      <path
         id="path58"
         d="M 0,0 -5.598,20.893 -61.865,5.817 -54.288,-16.576 Z"
         style="fill:#d7eff5;fill-opacity:1;fill-rule:evenodd;stroke:none"
         transform="matrix(1.3333333,0,0,-1.3333333,570.668,547.81387)"
         clip-path="url(#clipPath59)" />
      <path
         id="path60"
         d="m 0,0 -43.774,-11.892 c -5.103,-1.387 -9.273,-3.274 -13.682,-6.191 l -2.858,-1.891 3.642,11.526 c 1.409,4.463 4.717,7.636 9.235,8.864 l 46.444,12.617 c 4.055,1.103 7.254,3.078 10.055,6.208 L 11.508,21.98 9.687,10.765 C 8.827,5.469 5.179,1.406 0,0"
         style="fill:#ffffff;fill-opacity:1;fill-rule:evenodd;stroke:none"
         transform="matrix(1.3333333,0,0,-1.3333333,558.24613,524.98573)"
         clip-path="url(#clipPath61)" />
    </g>
  </g>
</svg>
